# xmcd
#
# Track frame offsets:
#	150
#	7409
#	18329
#	30012
#	47121
#	59737
#	79927
#	96668
#	117492
#	131132
#	149478
#	160400
#	179762
#	195935
#	211814
#	225349
#	250675
#
# Disc length: 3432 seconds
#
# Revision: 6
# Processed by: cddbd v1.5.2PL0 Copyright (c) Steve Scherf et al.
# Submitted via: EasyCDDAExtractor 12.0.6 .1
#
DISCID=f20d6611
DTITLE=크라잉 넛 - OK 목장의 젖소
DYEAR=2006
DGENRE=Punk
TTITLE0=OK 목장의 젖소
TTITLE1=룩셈부르크
TTITLE2=부딪쳐
TTITLE3=명동콜링
TTITLE4=마시자
TTITLE5=유원지의 밤
TTITLE6=뜨거운 안녕
TTITLE7=물밑의 속삭임
TTITLE8=백수일기 (白水日記)
TTITLE9=새
TTITLE10=My World
TTITLE11=순이 우주로
TTITLE12=오줌싸개 (Generation)
TTITLE13=한낮의 꿈
TTITLE14=감옥으로부터의 사색
TTITLE15=튼튼이의 모험
TTITLE16=Hidden Track
EXTD=
EXTT0=
EXTT1=
EXTT2=
EXTT3=
EXTT4=
EXTT5=
EXTT6=
EXTT7=
EXTT8=
EXTT9=
EXTT10=
EXTT11=
EXTT12=
EXTT13=
EXTT14=
EXTT15=
EXTT16=
PLAYORDER=
